<?xml version="1.0" encoding="iso-8859-1"?>
<!-- Generator: Adobe Illustrator 18.0.0, SVG Export Plug-In . SVG Version: 6.00 Build 0)  -->
<!DOCTYPE svg PUBLIC "-//W3C//DTD SVG 1.1//EN" "http://www.w3.org/Graphics/SVG/1.1/DTD/svg11.dtd">
<svg version="1.1" id="Capa_1" xmlns="http://www.w3.org/2000/svg" xmlns:xlink="http://www.w3.org/1999/xlink" x="0px" y="0px"
	 viewBox="0 0 112.196 112.196" style="enable-background:new 0 0 112.196 112.196;" xml:space="preserve">
<g>
	<circle id="XMLID_115_" style="fill:#6A453B;" cx="56.098" cy="56.097" r="56.098"/>
	<path style="fill:#FFFFFF;" d="M79.124,22.506h-46.05c-5.83,0-10.56,4.73-10.56,10.57v46.05c0,5.83,4.73,10.56,10.56,10.56h46.05
		c5.83,0,10.56-4.73,10.56-10.56v-46.05C89.684,27.236,84.954,22.506,79.124,22.506z M71.983,30.276l8.44-0.02h0.02
		c0.81-0.01,1.47,0.65,1.47,1.45v8.47c0,0.81-0.65,1.46-1.46,1.46l-8.43,0.03c-0.81,0-1.46-0.65-1.46-1.45l-0.03-8.47
		C70.523,30.936,71.173,30.286,71.983,30.276z M45.804,50.326c0.22-0.38,0.45-0.76,0.71-1.12c2.15-2.98,5.64-4.93,9.58-4.93
		c3.95,0,7.44,1.95,9.59,4.93c0.26,0.36,0.49,0.74,0.71,1.13c0.96,1.7,1.53,3.67,1.53,5.76c0,6.52-5.31,11.82-11.83,11.82
		c-6.52,0-11.82-5.3-11.82-11.82C44.273,54.006,44.834,52.036,45.804,50.326z M83.144,76.706c0,3.55-2.89,6.44-6.44,6.44h-41.21
		c-3.55,0-6.44-2.89-6.44-6.44v-27.5h10.03c-0.25,0.61-0.47,1.25-0.65,1.89c-0.46,1.59-0.7,3.27-0.7,5
		c0,10.13,8.24,18.37,18.36,18.37c10.13,0,18.37-8.24,18.37-18.37c0-1.73-0.25-3.41-0.7-5c-0.19-0.64-0.4-1.28-0.65-1.89h10.03
		V76.706z"/>
</g>
<g>
</g>
<g>
</g>
<g>
</g>
<g>
</g>
<g>
</g>
<g>
</g>
<g>
</g>
<g>
</g>
<g>
</g>
<g>
</g>
<g>
</g>
<g>
</g>
<g>
</g>
<g>
</g>
<g>
</g>
</svg>
